<?xml version="1.0" encoding="UTF-8"?><svg xmlns="http://www.w3.org/2000/svg" xmlns:xlink="http://www.w3.org/1999/xlink" version="1.1" id="Layer_1" x="0px" y="0px" viewBox="0 0 48 48" xml:space="preserve"><path fill="#E1E7EA" d="M8 4h32v40H8z"/><path d="M21.999 30a4.994 4.994 0 0 0-3.287 1.234c-1.489 1.3-3.016 5.409-3.603 7.116l-1.031 2.995 3.148-.358c2.37-.269 6.568-.916 8.063-2.221a4.966 4.966 0 0 0 1.7-3.429 4.97 4.97 0 0 0-1.222-3.626A5.005 5.005 0 0 0 21.999 30z" fill="#B0BEC5"/><path fill="#90CAF9" d="M10 6h28v30H10z"/><path fill="#E3F2FD" d="M10 20v16h28V24l-11-4z"/><circle cx="17" cy="18" r="4" fill="#E3F2FD"/><path d="M12.5 17c-.981 0-1.865.406-2.5 1.056v4.889A3.487 3.487 0 0 0 12.5 24a3.5 3.5 0 1 0 0-7z" fill="#E3F2FD"/><circle cx="22" cy="20" r="3" fill="#E3F2FD"/><path d="M38 21.184A2.962 2.962 0 0 0 37 21a3 3 0 1 0 0 6c.353 0 .686-.072 1-.184v-5.632z" fill="#E3F2FD"/><circle cx="27" cy="21" r="3" fill="#E3F2FD"/><circle cx="32" cy="21" r="4" fill="#E3F2FD"/><path fill="#BBDEFB" d="M38 25.621V21L24 34l-.833 2h3.606z"/><path fill="#1565C0" d="M10 36V23l4.5 4 4.5-4 5 4 2.5-2L38 34v2z"/><path fill="#0D47A1" d="M24 27l2.5-2L38 34v2h-3z"/><path fill="#1A237E" d="M33.092 30.159l-2.689-2.105-2.396 2.225 2.628 2.15z"/><path fill="#0D47A1" d="M10 23l4.5 4-4.5 4z"/><path fill="#0D47A1" d="M28.007 30.279L24 34l-.833 2h3.606l3.862-3.571z"/><path d="M22.417 32.084l20.93-16.85a1 1 0 1 1 1.301 1.519L24.93 34.98l-2.513-2.896z" fill="#FF1744"/><path d="M23.973 37.26C22.725 38.35 17 39 17 39s1.779-5.17 3.027-6.26a3 3 0 1 1 3.946 4.52z" fill="#FFF"/><metadata><rdf:RDF xmlns:rdf="http://www.w3.org/1999/02/22-rdf-syntax-ns#" xmlns:rdfs="http://www.w3.org/2000/01/rdf-schema#" xmlns:dc="http://purl.org/dc/elements/1.1/"><rdf:Description about="https://iconscout.com/legal#licenses" dc:title="paint,net" dc:description="paint,net" dc:publisher="Iconscout" dc:date="2017-12-15" dc:format="image/svg+xml" dc:language="en"><dc:creator><rdf:Bag><rdf:li>Icons8</rdf:li></rdf:Bag></dc:creator></rdf:Description></rdf:RDF></metadata></svg>